<svg width="113" height="35" viewBox="0 0 113 35" fill="none" xmlns="http://www.w3.org/2000/svg">
<mask id="mask0_1_1346" style="mask-type:luminance" maskUnits="userSpaceOnUse" x="0" y="0" width="113" height="35">
<path d="M112.574 0.0684204H0.865723V34.9316H112.574V0.0684204Z" fill="white"/>
</mask>
<g mask="url(#mask0_1_1346)">
<path d="M59.7394 8.82778C59.7394 10.0841 58.7274 11.0961 57.4712 11.0961C56.2146 11.0961 55.2026 10.0841 55.2026 8.82778C55.2026 7.57145 56.1798 6.5594 57.4712 6.5594C58.7623 6.59431 59.7394 7.60634 59.7394 8.82778ZM50.3867 13.3994C50.3867 13.6088 50.3867 13.9578 50.3867 13.9578C50.3867 13.9578 49.3049 12.5619 47.0015 12.5619C43.1978 12.5619 40.2313 15.4584 40.2313 19.4717C40.2313 23.4501 43.1627 26.3816 47.0015 26.3816C49.3398 26.3816 50.3867 24.9507 50.3867 24.9507V25.5439C50.3867 25.823 50.5961 26.0325 50.8752 26.0325H53.7021V12.9108C53.7021 12.9108 51.1195 12.9108 50.8752 12.9108C50.5961 12.9108 50.3867 13.1552 50.3867 13.3994ZM50.3867 21.8099C49.8632 22.5776 48.8164 23.2407 47.5601 23.2407C45.3264 23.2407 43.6164 21.8447 43.6164 19.4717C43.6164 17.0986 45.3264 15.7027 47.5601 15.7027C48.7815 15.7027 49.8981 16.4007 50.3867 17.1335V21.8099ZM55.796 12.9108H59.1463V26.0325H55.796V12.9108ZM105.84 12.5619C103.537 12.5619 102.455 13.9578 102.455 13.9578V6.59431H99.1046V26.0325C99.1046 26.0325 101.687 26.0325 101.931 26.0325C102.21 26.0325 102.42 25.7882 102.42 25.5439V24.9507C102.42 24.9507 103.502 26.3816 105.805 26.3816C109.609 26.3816 112.575 23.4501 112.575 19.4717C112.575 15.4933 109.609 12.5619 105.84 12.5619ZM105.281 23.2058C103.99 23.2058 102.978 22.5427 102.455 21.775V17.0986C102.978 16.4007 104.095 15.6678 105.281 15.6678C107.515 15.6678 109.225 17.0637 109.225 19.4368C109.225 21.8099 107.515 23.2058 105.281 23.2058ZM97.3595 18.2503V26.0673H94.0095V18.6341C94.0095 16.4704 93.3115 15.598 91.4269 15.598C90.4149 15.598 89.3678 16.1215 88.7049 16.8892V26.0325H85.3547V12.9108H88.007C88.2861 12.9108 88.4955 13.1552 88.4955 13.3994V13.9578C89.4727 12.9458 90.7638 12.5619 92.055 12.5619C93.5207 12.5619 94.7423 12.9806 95.7195 13.8182C96.9058 14.7953 97.3595 16.0517 97.3595 18.2503ZM77.2233 12.5619C74.9202 12.5619 73.8382 13.9578 73.8382 13.9578V6.59431H70.488V26.0325C70.488 26.0325 73.0705 26.0325 73.3148 26.0325C73.5939 26.0325 73.8033 25.7882 73.8033 25.5439V24.9507C73.8033 24.9507 74.8853 26.3816 77.1885 26.3816C80.9924 26.3816 83.9587 23.4501 83.9587 19.4717C83.9936 15.4933 81.0273 12.5619 77.2233 12.5619ZM76.665 23.2058C75.3739 23.2058 74.3616 22.5427 73.8382 21.775V17.0986C74.3616 16.4007 75.4785 15.6678 76.665 15.6678C78.8985 15.6678 80.6084 17.0637 80.6084 19.4368C80.6084 21.8099 78.8985 23.2058 76.665 23.2058ZM67.5914 12.5619C68.6036 12.5619 69.1271 12.7364 69.1271 12.7364V15.8423C69.1271 15.8423 66.3351 14.9001 64.5903 16.8892V26.0673H61.24V12.9108C61.24 12.9108 63.8226 12.9108 64.0668 12.9108C64.346 12.9108 64.5554 13.1552 64.5554 13.3994V13.9578C65.1834 13.2249 66.5445 12.5619 67.5914 12.5619ZM32.7982 24.8459C32.6236 24.4273 32.4491 23.9735 32.2748 23.5897C31.9954 22.9615 31.7162 22.3682 31.4719 21.8099L31.4371 21.775C29.0291 16.5402 26.4466 11.2357 23.7246 6.00103L23.6199 5.79164C23.3407 5.26818 23.0616 4.70981 22.7824 4.15144C22.4334 3.52328 22.0844 2.8602 21.526 2.23204C20.4093 0.836117 18.804 0.0683594 17.094 0.0683594C15.3491 0.0683594 13.7787 0.836117 12.627 2.16224C12.1035 2.7904 11.7197 3.45348 11.3707 4.08164C11.0915 4.64001 10.8123 5.19838 10.5331 5.72186L10.4284 5.93123C7.74129 11.1659 5.12394 16.4704 2.71597 21.7052L2.68107 21.775C2.43679 22.3333 2.1576 22.9266 1.87842 23.5548C1.70393 23.9386 1.52944 24.3573 1.35494 24.811C0.901271 26.1024 0.761678 27.3239 0.936169 28.5801C1.32005 31.1975 3.06495 33.3961 5.47291 34.3732C6.38027 34.757 7.32252 34.9315 8.29966 34.9315C8.57886 34.9315 8.92783 34.8967 9.20702 34.8618C10.3586 34.7221 11.5452 34.3384 12.6968 33.6753C14.1276 32.8724 15.4887 31.721 17.0242 30.0459C18.5597 31.721 19.9556 32.8724 21.3515 33.6753C22.5032 34.3384 23.6897 34.7221 24.8413 34.8618C25.1205 34.8967 25.4694 34.9315 25.7488 34.9315C26.7259 34.9315 27.7031 34.757 28.5754 34.3732C31.0182 33.3961 32.7282 31.1624 33.1122 28.5801C33.3913 27.3587 33.2519 26.1373 32.7982 24.8459ZM17.0591 26.6607C15.1746 24.2876 13.9532 22.0541 13.5344 20.1696C13.3599 19.367 13.325 18.669 13.4297 18.0409C13.4995 17.4825 13.7089 16.9939 13.9881 16.5752C14.6511 15.6329 15.7679 15.0396 17.0591 15.0396C18.3503 15.0396 19.502 15.598 20.1301 16.5752C20.4093 16.9939 20.6187 17.4825 20.6885 18.0409C20.7932 18.669 20.7583 19.4019 20.5838 20.1696C20.165 22.0193 18.9436 24.2527 17.0591 26.6607ZM30.9834 28.301C30.7391 30.1156 29.5177 31.6861 27.8077 32.3839C26.9702 32.733 26.0628 32.8376 25.1554 32.733C24.283 32.6282 23.4105 32.349 22.5032 31.8256C21.2469 31.1276 19.9905 30.0459 18.5248 28.4405C20.8281 25.6139 22.224 23.0313 22.7475 20.728C22.9918 19.6462 23.0266 18.669 22.922 17.7617C22.7824 16.8892 22.4683 16.0866 21.9797 15.3886C20.8979 13.8182 19.0832 12.9108 17.0591 12.9108C15.035 12.9108 13.2203 13.8531 12.1385 15.3886C11.6499 16.0866 11.3358 16.8892 11.1962 17.7617C11.0566 18.669 11.0915 19.6811 11.3707 20.728C11.8942 23.0313 13.325 25.6487 15.5934 28.4753C14.1625 30.0807 12.8713 31.1624 11.615 31.8604C10.7076 32.3839 9.83517 32.6633 8.96272 32.7678C8.02049 32.8724 7.11313 32.733 6.31048 32.419C4.60046 31.721 3.37904 30.1504 3.13475 28.3359C3.03005 27.4633 3.09985 26.591 3.44884 25.6139C3.55352 25.2648 3.72801 24.9159 3.90249 24.497C4.1468 23.9386 4.42597 23.3454 4.70517 22.7521L4.74006 22.6823C7.14804 17.4825 9.73048 12.178 12.4176 7.01308L12.5223 6.80368C12.8015 6.28023 13.0807 5.72186 13.3599 5.19838C13.6391 4.64001 13.9532 4.11653 14.337 3.66285C15.0699 2.82531 16.047 2.37163 17.1289 2.37163C18.2107 2.37163 19.1879 2.82531 19.9207 3.66285C20.3046 4.11653 20.6187 4.64001 20.8979 5.19838C21.1771 5.72186 21.4563 6.28023 21.7354 6.80368L21.8401 7.01308C24.4924 12.2129 27.0748 17.5174 29.4828 22.7172V22.7521C29.7619 23.3105 30.0062 23.9386 30.2854 24.497C30.4599 24.9159 30.6345 25.2648 30.7391 25.6139C31.0182 26.521 31.1231 27.3936 30.9834 28.301Z" fill="#333333"/>
</g>
</svg>
