<svg width="135" height="63" viewBox="0 0 135 63" fill="none" xmlns="http://www.w3.org/2000/svg">
<path d="M31.0842 34.9C28.4442 34.9 26.1909 34.3533 24.3242 33.26C22.4842 32.14 21.2176 30.54 20.5242 28.46L25.7242 26.18C25.9109 27.14 26.2176 27.94 26.6442 28.58C27.0709 29.1933 27.6442 29.66 28.3642 29.98C29.1109 30.3 29.9909 30.46 31.0042 30.46C31.9109 30.46 32.6709 30.3 33.2842 29.98C33.9242 29.66 34.4176 29.2067 34.7642 28.62C35.1109 28.0333 35.2842 27.3667 35.2842 26.62C35.2842 25.82 35.1242 25.1667 34.8042 24.66C34.5109 24.1533 34.0576 23.7933 33.4442 23.58C32.8309 23.34 32.0576 23.22 31.1242 23.22C30.7776 23.22 30.4442 23.2333 30.1242 23.26C29.8309 23.26 29.4976 23.2867 29.1242 23.34V19.3C29.3376 19.3267 29.5509 19.3533 29.7642 19.38C30.0042 19.38 30.2442 19.38 30.4842 19.38C31.9776 19.38 33.0442 19.0867 33.6842 18.5C34.3509 17.8867 34.6842 16.9133 34.6842 15.58C34.6842 14.4867 34.3509 13.6467 33.6842 13.06C33.0442 12.4467 32.1242 12.14 30.9242 12.14C29.6442 12.14 28.6309 12.46 27.8842 13.1C27.1376 13.7133 26.6176 14.66 26.3242 15.94L21.4042 14.1C21.7242 12.7667 22.3376 11.62 23.2442 10.66C24.1776 9.7 25.3242 8.96667 26.6842 8.46C28.0442 7.92667 29.5509 7.66 31.2042 7.66C33.1776 7.66 34.8176 7.96667 36.1242 8.58C37.4576 9.19333 38.4576 10.0333 39.1242 11.1C39.8176 12.1667 40.1642 13.3933 40.1642 14.78C40.1642 15.8733 39.9909 16.8067 39.6442 17.58C39.3242 18.3267 38.8976 18.9667 38.3642 19.5C37.8576 20.0067 37.3242 20.3933 36.7642 20.66C36.2042 20.9267 35.6842 21.0867 35.2042 21.14V21.26C35.8176 21.2867 36.4442 21.42 37.0842 21.66C37.7242 21.8733 38.3109 22.2067 38.8442 22.66C39.4042 23.1133 39.8576 23.7 40.2042 24.42C40.5509 25.1133 40.7242 25.94 40.7242 26.9C40.7242 28.5 40.2976 29.9133 39.4442 31.14C38.6176 32.34 37.4842 33.2733 36.0442 33.94C34.6042 34.58 32.9509 34.9 31.0842 34.9ZM54.6789 34.9C51.2923 34.9 48.6789 33.7533 46.8389 31.46C45.0256 29.1667 44.1189 25.78 44.1189 21.3C44.1189 16.82 45.0256 13.4333 46.8389 11.14C48.6789 8.84667 51.2923 7.7 54.6789 7.7C58.0656 7.7 60.6656 8.84667 62.4789 11.14C64.3189 13.4333 65.2389 16.82 65.2389 21.3C65.2389 25.78 64.3189 29.1667 62.4789 31.46C60.6656 33.7533 58.0656 34.9 54.6789 34.9ZM54.6789 30.46C55.8256 30.46 56.7589 30.14 57.4789 29.5C58.2256 28.8333 58.7856 27.8333 59.1589 26.5C59.5323 25.14 59.7189 23.4067 59.7189 21.3C59.7189 19.1933 59.5323 17.4733 59.1589 16.14C58.7856 14.78 58.2256 13.78 57.4789 13.14C56.7589 12.4733 55.8256 12.14 54.6789 12.14C53.5323 12.14 52.5856 12.4733 51.8389 13.14C51.0923 13.78 50.5323 14.78 50.1589 16.14C49.8123 17.4733 49.6389 19.1933 49.6389 21.3C49.6389 23.4067 49.8123 25.14 50.1589 26.5C50.5323 27.8333 51.0923 28.8333 51.8389 29.5C52.5856 30.14 53.5323 30.46 54.6789 30.46ZM79.3086 34.9C75.922 34.9 73.3086 33.7533 71.4686 31.46C69.6553 29.1667 68.7486 25.78 68.7486 21.3C68.7486 16.82 69.6553 13.4333 71.4686 11.14C73.3086 8.84667 75.922 7.7 79.3086 7.7C82.6953 7.7 85.2953 8.84667 87.1086 11.14C88.9486 13.4333 89.8686 16.82 89.8686 21.3C89.8686 25.78 88.9486 29.1667 87.1086 31.46C85.2953 33.7533 82.6953 34.9 79.3086 34.9ZM79.3086 30.46C80.4553 30.46 81.3886 30.14 82.1086 29.5C82.8553 28.8333 83.4153 27.8333 83.7886 26.5C84.162 25.14 84.3486 23.4067 84.3486 21.3C84.3486 19.1933 84.162 17.4733 83.7886 16.14C83.4153 14.78 82.8553 13.78 82.1086 13.14C81.3886 12.4733 80.4553 12.14 79.3086 12.14C78.162 12.14 77.2153 12.4733 76.4686 13.14C75.722 13.78 75.162 14.78 74.7886 16.14C74.442 17.4733 74.2686 19.1933 74.2686 21.3C74.2686 23.4067 74.442 25.14 74.7886 26.5C75.162 27.8333 75.722 28.8333 76.4686 29.5C77.2153 30.14 78.162 30.46 79.3086 30.46ZM105.578 11.3V31.98H101.058V11.3H105.578ZM113.218 19.54V23.7H93.3783V19.54H113.218Z" fill="#2D2B29"/>
<path d="M7.36559 46.742V47.778H4.70559V56.5H3.43159V47.778H0.757586V46.742H7.36559ZM9.9278 50.074C10.1518 49.6353 10.4691 49.2947 10.8798 49.052C11.2998 48.8093 11.8085 48.688 12.4058 48.688V50.004H12.0698C10.6418 50.004 9.9278 50.7787 9.9278 52.328V56.5H8.6538V48.828H9.9278V50.074ZM20.4005 48.828V56.5H19.1265V55.366C18.8838 55.758 18.5431 56.066 18.1045 56.29C17.6751 56.5047 17.1991 56.612 16.6765 56.612C16.0791 56.612 15.5425 56.4907 15.0665 56.248C14.5905 55.996 14.2125 55.6227 13.9325 55.128C13.6618 54.6333 13.5265 54.0313 13.5265 53.322V48.828H14.7865V53.154C14.7865 53.91 14.9778 54.4933 15.3605 54.904C15.7431 55.3053 16.2658 55.506 16.9285 55.506C17.6098 55.506 18.1465 55.296 18.5385 54.876C18.9305 54.456 19.1265 53.8447 19.1265 53.042V48.828H20.4005ZM24.9875 56.626C24.3995 56.626 23.8722 56.528 23.4055 56.332C22.9389 56.1267 22.5702 55.8467 22.2995 55.492C22.0289 55.128 21.8795 54.7127 21.8515 54.246H23.1675C23.2049 54.6287 23.3822 54.9413 23.6995 55.184C24.0262 55.4267 24.4509 55.548 24.9735 55.548C25.4589 55.548 25.8415 55.4407 26.1215 55.226C26.4015 55.0113 26.5415 54.7407 26.5415 54.414C26.5415 54.078 26.3922 53.8307 26.0935 53.672C25.7949 53.504 25.3329 53.3407 24.7075 53.182C24.1382 53.0327 23.6715 52.8833 23.3075 52.734C22.9529 52.5753 22.6449 52.3467 22.3835 52.048C22.1315 51.74 22.0055 51.3387 22.0055 50.844C22.0055 50.452 22.1222 50.0927 22.3555 49.766C22.5889 49.4393 22.9202 49.1827 23.3495 48.996C23.7789 48.8 24.2689 48.702 24.8195 48.702C25.6689 48.702 26.3549 48.9167 26.8775 49.346C27.4002 49.7753 27.6802 50.3633 27.7175 51.11H26.4435C26.4155 50.7087 26.2522 50.3867 25.9535 50.144C25.6642 49.9013 25.2722 49.78 24.7775 49.78C24.3202 49.78 23.9562 49.878 23.6855 50.074C23.4149 50.27 23.2795 50.5267 23.2795 50.844C23.2795 51.096 23.3589 51.306 23.5175 51.474C23.6855 51.6327 23.8909 51.7633 24.1335 51.866C24.3855 51.9593 24.7309 52.0667 25.1695 52.188C25.7202 52.3373 26.1682 52.4867 26.5135 52.636C26.8589 52.776 27.1529 52.9907 27.3955 53.28C27.6475 53.5693 27.7782 53.9473 27.7875 54.414C27.7875 54.834 27.6709 55.212 27.4375 55.548C27.2042 55.884 26.8729 56.15 26.4435 56.346C26.0235 56.5327 25.5382 56.626 24.9875 56.626ZM30.86 49.878V54.4C30.86 54.7733 30.9393 55.0393 31.098 55.198C31.2567 55.3473 31.532 55.422 31.924 55.422H32.862V56.5H31.714C31.0047 56.5 30.4727 56.3367 30.118 56.01C29.7633 55.6833 29.586 55.1467 29.586 54.4V49.878H28.592V48.828H29.586V46.896H30.86V48.828H32.862V49.878H30.86ZM41.1256 52.37C41.1256 52.6127 41.1116 52.8693 41.0836 53.14H34.9516C34.9983 53.896 35.2549 54.4887 35.7216 54.918C36.1976 55.338 36.7716 55.548 37.4436 55.548C37.9943 55.548 38.4516 55.422 38.8156 55.17C39.1889 54.9087 39.4503 54.5633 39.5996 54.134H40.9716C40.7663 54.8713 40.3556 55.4733 39.7396 55.94C39.1236 56.3973 38.3583 56.626 37.4436 56.626C36.7156 56.626 36.0623 56.4627 35.4836 56.136C34.9143 55.8093 34.4663 55.3473 34.1396 54.75C33.8129 54.1433 33.6496 53.4433 33.6496 52.65C33.6496 51.8567 33.8083 51.1613 34.1256 50.564C34.4429 49.9667 34.8863 49.5093 35.4556 49.192C36.0343 48.8653 36.6969 48.702 37.4436 48.702C38.1716 48.702 38.8156 48.8607 39.3756 49.178C39.9356 49.4953 40.3649 49.934 40.6636 50.494C40.9716 51.0447 41.1256 51.67 41.1256 52.37ZM39.8096 52.104C39.8096 51.6187 39.7023 51.2033 39.4876 50.858C39.2729 50.5033 38.9789 50.2373 38.6056 50.06C38.2416 49.8733 37.8356 49.78 37.3876 49.78C36.7436 49.78 36.1929 49.9853 35.7356 50.396C35.2876 50.8067 35.0309 51.376 34.9656 52.104H39.8096ZM42.0512 52.636C42.0512 51.852 42.2099 51.166 42.5272 50.578C42.8446 49.9807 43.2786 49.5187 43.8292 49.192C44.3892 48.8653 45.0146 48.702 45.7052 48.702C46.3026 48.702 46.8579 48.842 47.3712 49.122C47.8846 49.3927 48.2766 49.752 48.5472 50.2V46.14H49.8352V56.5H48.5472V55.058C48.2952 55.5153 47.9219 55.8933 47.4272 56.192C46.9326 56.4813 46.3539 56.626 45.6912 56.626C45.0099 56.626 44.3892 56.458 43.8292 56.122C43.2786 55.786 42.8446 55.3147 42.5272 54.708C42.2099 54.1013 42.0512 53.4107 42.0512 52.636ZM48.5472 52.65C48.5472 52.0713 48.4306 51.5673 48.1972 51.138C47.9639 50.7087 47.6466 50.382 47.2452 50.158C46.8532 49.9247 46.4192 49.808 45.9432 49.808C45.4672 49.808 45.0332 49.92 44.6412 50.144C44.2492 50.368 43.9366 50.6947 43.7032 51.124C43.4699 51.5533 43.3532 52.0573 43.3532 52.636C43.3532 53.224 43.4699 53.7373 43.7032 54.176C43.9366 54.6053 44.2492 54.9367 44.6412 55.17C45.0332 55.394 45.4672 55.506 45.9432 55.506C46.4192 55.506 46.8532 55.394 47.2452 55.17C47.6466 54.9367 47.9639 54.6053 48.1972 54.176C48.4306 53.7373 48.5472 53.2287 48.5472 52.65ZM54.6846 51.614C54.6846 50.662 54.8993 49.808 55.3286 49.052C55.7579 48.2867 56.3413 47.6893 57.0786 47.26C57.8253 46.8307 58.6513 46.616 59.5566 46.616C60.6206 46.616 61.5493 46.8727 62.3426 47.386C63.1359 47.8993 63.7146 48.6273 64.0786 49.57H62.5526C62.2819 48.982 61.8899 48.5293 61.3766 48.212C60.8726 47.8947 60.2659 47.736 59.5566 47.736C58.8753 47.736 58.2639 47.8947 57.7226 48.212C57.1813 48.5293 56.7566 48.982 56.4486 49.57C56.1406 50.1487 55.9866 50.83 55.9866 51.614C55.9866 52.3887 56.1406 53.07 56.4486 53.658C56.7566 54.2367 57.1813 54.6847 57.7226 55.002C58.2639 55.3193 58.8753 55.478 59.5566 55.478C60.2659 55.478 60.8726 55.324 61.3766 55.016C61.8899 54.6987 62.2819 54.246 62.5526 53.658H64.0786C63.7146 54.5913 63.1359 55.3147 62.3426 55.828C61.5493 56.332 60.6206 56.584 59.5566 56.584C58.6513 56.584 57.8253 56.374 57.0786 55.954C56.3413 55.5247 55.7579 54.932 55.3286 54.176C54.8993 53.42 54.6846 52.566 54.6846 51.614ZM69.0411 56.626C68.3224 56.626 67.6691 56.4627 67.0811 56.136C66.5024 55.8093 66.0451 55.3473 65.7091 54.75C65.3824 54.1433 65.2191 53.4433 65.2191 52.65C65.2191 51.866 65.3871 51.1753 65.7231 50.578C66.0684 49.9713 66.5351 49.5093 67.1231 49.192C67.7111 48.8653 68.3691 48.702 69.0971 48.702C69.8251 48.702 70.4831 48.8653 71.0711 49.192C71.6591 49.5093 72.1211 49.9667 72.4571 50.564C72.8024 51.1613 72.9751 51.8567 72.9751 52.65C72.9751 53.4433 72.7977 54.1433 72.4431 54.75C72.0977 55.3473 71.6264 55.8093 71.0291 56.136C70.4317 56.4627 69.7691 56.626 69.0411 56.626ZM69.0411 55.506C69.4984 55.506 69.9277 55.3987 70.3291 55.184C70.7304 54.9693 71.0524 54.6473 71.2951 54.218C71.5471 53.7887 71.6731 53.266 71.6731 52.65C71.6731 52.034 71.5517 51.5113 71.3091 51.082C71.0664 50.6527 70.7491 50.3353 70.3571 50.13C69.9651 49.9153 69.5404 49.808 69.0831 49.808C68.6164 49.808 68.1871 49.9153 67.7951 50.13C67.4124 50.3353 67.1044 50.6527 66.8711 51.082C66.6377 51.5113 66.5211 52.034 66.5211 52.65C66.5211 53.2753 66.6331 53.8027 66.8571 54.232C67.0904 54.6613 67.3984 54.9833 67.7811 55.198C68.1637 55.4033 68.5837 55.506 69.0411 55.506ZM83.5961 48.688C84.1935 48.688 84.7255 48.814 85.1921 49.066C85.6588 49.3087 86.0275 49.6773 86.2981 50.172C86.5688 50.6667 86.7041 51.2687 86.7041 51.978V56.5H85.4441V52.16C85.4441 51.3947 85.2528 50.8113 84.8701 50.41C84.4968 49.9993 83.9881 49.794 83.3441 49.794C82.6815 49.794 82.1541 50.0087 81.7621 50.438C81.3701 50.858 81.1741 51.4693 81.1741 52.272V56.5H79.9141V52.16C79.9141 51.3947 79.7228 50.8113 79.3401 50.41C78.9668 49.9993 78.4581 49.794 77.8141 49.794C77.1515 49.794 76.6241 50.0087 76.2321 50.438C75.8401 50.858 75.6441 51.4693 75.6441 52.272V56.5H74.3701V48.828H75.6441V49.934C75.8961 49.5327 76.2321 49.2247 76.6521 49.01C77.0815 48.7953 77.5528 48.688 78.0661 48.688C78.7101 48.688 79.2795 48.8327 79.7741 49.122C80.2688 49.4113 80.6375 49.836 80.8801 50.396C81.0948 49.8547 81.4495 49.4347 81.9441 49.136C82.4388 48.8373 82.9895 48.688 83.5961 48.688ZM89.788 50.242C90.04 49.8033 90.4133 49.4393 90.908 49.15C91.412 48.8513 91.9953 48.702 92.658 48.702C93.3393 48.702 93.9553 48.8653 94.506 49.192C95.066 49.5187 95.5046 49.9807 95.822 50.578C96.1393 51.166 96.298 51.852 96.298 52.636C96.298 53.4107 96.1393 54.1013 95.822 54.708C95.5046 55.3147 95.066 55.786 94.506 56.122C93.9553 56.458 93.3393 56.626 92.658 56.626C92.0046 56.626 91.426 56.4813 90.922 56.192C90.4273 55.8933 90.0493 55.5247 89.788 55.086V60.14H88.514V48.828H89.788V50.242ZM94.996 52.636C94.996 52.0573 94.8793 51.5533 94.646 51.124C94.4126 50.6947 94.0953 50.368 93.694 50.144C93.302 49.92 92.868 49.808 92.392 49.808C91.9253 49.808 91.4913 49.9247 91.09 50.158C90.698 50.382 90.3806 50.7133 90.138 51.152C89.9046 51.5813 89.788 52.0807 89.788 52.65C89.788 53.2287 89.9046 53.7373 90.138 54.176C90.3806 54.6053 90.698 54.9367 91.09 55.17C91.4913 55.394 91.9253 55.506 92.392 55.506C92.868 55.506 93.302 55.394 93.694 55.17C94.0953 54.9367 94.4126 54.6053 94.646 54.176C94.8793 53.7373 94.996 53.224 94.996 52.636ZM97.2189 52.636C97.2189 51.852 97.3776 51.166 97.6949 50.578C98.0122 49.9807 98.4462 49.5187 98.9969 49.192C99.5569 48.8653 100.178 48.702 100.859 48.702C101.531 48.702 102.114 48.8467 102.609 49.136C103.104 49.4253 103.472 49.7893 103.715 50.228V48.828H105.003V56.5H103.715V55.072C103.463 55.52 103.085 55.8933 102.581 56.192C102.086 56.4813 101.508 56.626 100.845 56.626C100.164 56.626 99.5476 56.458 98.9969 56.122C98.4462 55.786 98.0122 55.3147 97.6949 54.708C97.3776 54.1013 97.2189 53.4107 97.2189 52.636ZM103.715 52.65C103.715 52.0713 103.598 51.5673 103.365 51.138C103.132 50.7087 102.814 50.382 102.413 50.158C102.021 49.9247 101.587 49.808 101.111 49.808C100.635 49.808 100.201 49.92 99.8089 50.144C99.4169 50.368 99.1042 50.6947 98.8709 51.124C98.6376 51.5533 98.5209 52.0573 98.5209 52.636C98.5209 53.224 98.6376 53.7373 98.8709 54.176C99.1042 54.6053 99.4169 54.9367 99.8089 55.17C100.201 55.394 100.635 55.506 101.111 55.506C101.587 55.506 102.021 55.394 102.413 55.17C102.814 54.9367 103.132 54.6053 103.365 54.176C103.598 53.7373 103.715 53.2287 103.715 52.65ZM110.614 48.688C111.547 48.688 112.303 48.9727 112.882 49.542C113.461 50.102 113.75 50.914 113.75 51.978V56.5H112.49V52.16C112.49 51.3947 112.299 50.8113 111.916 50.41C111.533 49.9993 111.011 49.794 110.348 49.794C109.676 49.794 109.139 50.004 108.738 50.424C108.346 50.844 108.15 51.4553 108.15 52.258V56.5H106.876V48.828H108.15V49.92C108.402 49.528 108.743 49.2247 109.172 49.01C109.611 48.7953 110.091 48.688 110.614 48.688ZM116.209 47.582C115.966 47.582 115.761 47.498 115.593 47.33C115.425 47.162 115.341 46.9567 115.341 46.714C115.341 46.4713 115.425 46.266 115.593 46.098C115.761 45.93 115.966 45.846 116.209 45.846C116.442 45.846 116.638 45.93 116.797 46.098C116.965 46.266 117.049 46.4713 117.049 46.714C117.049 46.9567 116.965 47.162 116.797 47.33C116.638 47.498 116.442 47.582 116.209 47.582ZM116.825 48.828V56.5H115.551V48.828H116.825ZM125.716 52.37C125.716 52.6127 125.702 52.8693 125.674 53.14H119.542C119.589 53.896 119.846 54.4887 120.312 54.918C120.788 55.338 121.362 55.548 122.034 55.548C122.585 55.548 123.042 55.422 123.406 55.17C123.78 54.9087 124.041 54.5633 124.19 54.134H125.562C125.357 54.8713 124.946 55.4733 124.33 55.94C123.714 56.3973 122.949 56.626 122.034 56.626C121.306 56.626 120.653 56.4627 120.074 56.136C119.505 55.8093 119.057 55.3473 118.73 54.75C118.404 54.1433 118.24 53.4433 118.24 52.65C118.24 51.8567 118.399 51.1613 118.716 50.564C119.034 49.9667 119.477 49.5093 120.046 49.192C120.625 48.8653 121.288 48.702 122.034 48.702C122.762 48.702 123.406 48.8607 123.966 49.178C124.526 49.4953 124.956 49.934 125.254 50.494C125.562 51.0447 125.716 51.67 125.716 52.37ZM124.4 52.104C124.4 51.6187 124.293 51.2033 124.078 50.858C123.864 50.5033 123.57 50.2373 123.196 50.06C122.832 49.8733 122.426 49.78 121.978 49.78C121.334 49.78 120.784 49.9853 120.326 50.396C119.878 50.8067 119.622 51.376 119.556 52.104H124.4ZM129.834 56.626C129.246 56.626 128.719 56.528 128.252 56.332C127.785 56.1267 127.417 55.8467 127.146 55.492C126.875 55.128 126.726 54.7127 126.698 54.246H128.014C128.051 54.6287 128.229 54.9413 128.546 55.184C128.873 55.4267 129.297 55.548 129.82 55.548C130.305 55.548 130.688 55.4407 130.968 55.226C131.248 55.0113 131.388 54.7407 131.388 54.414C131.388 54.078 131.239 53.8307 130.94 53.672C130.641 53.504 130.179 53.3407 129.554 53.182C128.985 53.0327 128.518 52.8833 128.154 52.734C127.799 52.5753 127.491 52.3467 127.23 52.048C126.978 51.74 126.852 51.3387 126.852 50.844C126.852 50.452 126.969 50.0927 127.202 49.766C127.435 49.4393 127.767 49.1827 128.196 48.996C128.625 48.8 129.115 48.702 129.666 48.702C130.515 48.702 131.201 48.9167 131.724 49.346C132.247 49.7753 132.527 50.3633 132.564 51.11H131.29C131.262 50.7087 131.099 50.3867 130.8 50.144C130.511 49.9013 130.119 49.78 129.624 49.78C129.167 49.78 128.803 49.878 128.532 50.074C128.261 50.27 128.126 50.5267 128.126 50.844C128.126 51.096 128.205 51.306 128.364 51.474C128.532 51.6327 128.737 51.7633 128.98 51.866C129.232 51.9593 129.577 52.0667 130.016 52.188C130.567 52.3373 131.015 52.4867 131.36 52.636C131.705 52.776 131.999 52.9907 132.242 53.28C132.494 53.5693 132.625 53.9473 132.634 54.414C132.634 54.834 132.517 55.212 132.284 55.548C132.051 55.884 131.719 56.15 131.29 56.346C130.87 56.5327 130.385 56.626 129.834 56.626Z" fill="#545454"/>
</svg>
