<svg width="113" height="35" viewBox="0 0 113 35" fill="none" xmlns="http://www.w3.org/2000/svg">
<mask id="mask0_1_1342" style="mask-type:luminance" maskUnits="userSpaceOnUse" x="0" y="0" width="112" height="35">
<path d="M111.99 0.0684204H0.281586V34.9316H111.99V0.0684204Z" fill="white"/>
</mask>
<g mask="url(#mask0_1_1342)">
<path d="M59.1553 8.82778C59.1553 10.0841 58.1433 11.0961 56.887 11.0961C55.6305 11.0961 54.6185 10.0841 54.6185 8.82778C54.6185 7.57145 55.5956 6.5594 56.887 6.5594C58.1782 6.59431 59.1553 7.60634 59.1553 8.82778ZM49.8025 13.3994C49.8025 13.6088 49.8025 13.9578 49.8025 13.9578C49.8025 13.9578 48.7208 12.5619 46.4174 12.5619C42.6137 12.5619 39.6472 15.4584 39.6472 19.4717C39.6472 23.4501 42.5786 26.3816 46.4174 26.3816C48.7557 26.3816 49.8025 24.9507 49.8025 24.9507V25.5439C49.8025 25.823 50.0119 26.0325 50.2911 26.0325H53.1179V12.9108C53.1179 12.9108 50.5354 12.9108 50.2911 12.9108C50.0119 12.9108 49.8025 13.1552 49.8025 13.3994ZM49.8025 21.8099C49.2791 22.5776 48.2322 23.2407 46.9759 23.2407C44.7423 23.2407 43.0323 21.8447 43.0323 19.4717C43.0323 17.0986 44.7423 15.7027 46.9759 15.7027C48.1974 15.7027 49.3139 16.4007 49.8025 17.1335V21.8099ZM55.2119 12.9108H58.5621V26.0325H55.2119V12.9108ZM105.256 12.5619C102.952 12.5619 101.87 13.9578 101.87 13.9578V6.59431H98.5204V26.0325C98.5204 26.0325 101.103 26.0325 101.347 26.0325C101.626 26.0325 101.836 25.7882 101.836 25.5439V24.9507C101.836 24.9507 102.918 26.3816 105.221 26.3816C109.025 26.3816 111.991 23.4501 111.991 19.4717C111.991 15.4933 109.025 12.5619 105.256 12.5619ZM104.697 23.2058C103.406 23.2058 102.394 22.5427 101.87 21.775V17.0986C102.394 16.4007 103.511 15.6678 104.697 15.6678C106.931 15.6678 108.641 17.0637 108.641 19.4368C108.641 21.8099 106.931 23.2058 104.697 23.2058ZM96.7753 18.2503V26.0673H93.4253V18.6341C93.4253 16.4704 92.7273 15.598 90.8428 15.598C89.8308 15.598 88.7837 16.1215 88.1208 16.8892V26.0325H84.7705V12.9108H87.4228C87.702 12.9108 87.9114 13.1552 87.9114 13.3994V13.9578C88.8885 12.9458 90.1797 12.5619 91.4708 12.5619C92.9365 12.5619 94.1582 12.9806 95.1353 13.8182C96.3216 14.7953 96.7753 16.0517 96.7753 18.2503ZM76.6392 12.5619C74.336 12.5619 73.2541 13.9578 73.2541 13.9578V6.59431H69.9038V26.0325C69.9038 26.0325 72.4864 26.0325 72.7306 26.0325C73.0098 26.0325 73.2192 25.7882 73.2192 25.5439V24.9507C73.2192 24.9507 74.3012 26.3816 76.6043 26.3816C80.4083 26.3816 83.3746 23.4501 83.3746 19.4717C83.4094 15.4933 80.4431 12.5619 76.6392 12.5619ZM76.0809 23.2058C74.7897 23.2058 73.7775 22.5427 73.2541 21.775V17.0986C73.7775 16.4007 74.8943 15.6678 76.0809 15.6678C78.3143 15.6678 80.0243 17.0637 80.0243 19.4368C80.0243 21.8099 78.3143 23.2058 76.0809 23.2058ZM67.0073 12.5619C68.0195 12.5619 68.5429 12.7364 68.5429 12.7364V15.8423C68.5429 15.8423 65.751 14.9001 64.0061 16.8892V26.0673H60.6559V12.9108C60.6559 12.9108 63.2384 12.9108 63.4827 12.9108C63.7618 12.9108 63.9713 13.1552 63.9713 13.3994V13.9578C64.5993 13.2249 65.9604 12.5619 67.0073 12.5619ZM32.214 24.8459C32.0395 24.4273 31.8649 23.9735 31.6906 23.5897C31.4112 22.9615 31.1321 22.3682 30.8878 21.8099L30.8529 21.775C28.4449 16.5402 25.8624 11.2357 23.1405 6.00103L23.0358 5.79164C22.7566 5.26818 22.4774 4.70981 22.1982 4.15144C21.8492 3.52328 21.5002 2.8602 20.9419 2.23204C19.8251 0.836117 18.2198 0.0683594 16.5098 0.0683594C14.7649 0.0683594 13.1945 0.836117 12.0429 2.16224C11.5194 2.7904 11.1355 3.45348 10.7866 4.08164C10.5074 4.64001 10.2282 5.19838 9.94899 5.72186L9.8443 5.93123C7.15715 11.1659 4.5398 16.4704 2.13183 21.7052L2.09693 21.775C1.85264 22.3333 1.57346 22.9266 1.29427 23.5548C1.11978 23.9386 0.945291 24.3573 0.7708 24.811C0.317126 26.1024 0.177534 27.3239 0.352024 28.5801C0.735903 31.1975 2.48081 33.3961 4.88877 34.3732C5.79613 34.757 6.73838 34.9315 7.71552 34.9315C7.99471 34.9315 8.34368 34.8967 8.62288 34.8618C9.7745 34.7221 10.961 34.3384 12.1127 33.6753C13.5435 32.8724 14.9045 31.721 16.44 30.0459C17.9756 31.721 19.3715 32.8724 20.7674 33.6753C21.919 34.3384 23.1056 34.7221 24.2572 34.8618C24.5364 34.8967 24.8853 34.9315 25.1647 34.9315C26.1418 34.9315 27.1189 34.757 27.9912 34.3732C30.4341 33.3961 32.1441 31.1624 32.5281 28.5801C32.8072 27.3587 32.6678 26.1373 32.214 24.8459ZM16.4749 26.6607C14.5904 24.2876 13.369 22.0541 12.9502 20.1696C12.7757 19.367 12.7409 18.669 12.8455 18.0409C12.9153 17.4825 13.1247 16.9939 13.4039 16.5752C14.067 15.6329 15.1837 15.0396 16.4749 15.0396C17.7662 15.0396 18.9178 15.598 19.546 16.5752C19.8251 16.9939 20.0345 17.4825 20.1043 18.0409C20.209 18.669 20.1741 19.4019 19.9996 20.1696C19.5809 22.0193 18.3594 24.2527 16.4749 26.6607ZM30.3992 28.301C30.1549 30.1156 28.9335 31.6861 27.2235 32.3839C26.3861 32.733 25.4787 32.8376 24.5713 32.733C23.6988 32.6282 22.8264 32.349 21.919 31.8256C20.6627 31.1276 19.4064 30.0459 17.9406 28.4405C20.2439 25.6139 21.6398 23.0313 22.1633 20.728C22.4076 19.6462 22.4425 18.669 22.3378 17.7617C22.1982 16.8892 21.8841 16.0866 21.3956 15.3886C20.3137 13.8182 18.499 12.9108 16.4749 12.9108C14.4508 12.9108 12.6361 13.8531 11.5543 15.3886C11.0657 16.0866 10.7516 16.8892 10.6121 17.7617C10.4725 18.669 10.5074 19.6811 10.7866 20.728C11.31 23.0313 12.7409 25.6487 15.0092 28.4753C13.5784 30.0807 12.2872 31.1624 11.0308 31.8604C10.1235 32.3839 9.25102 32.6633 8.37857 32.7678C7.43635 32.8724 6.52898 32.733 5.72633 32.419C4.01632 31.721 2.79489 30.1504 2.5506 28.3359C2.44591 27.4633 2.51571 26.591 2.86469 25.6139C2.96938 25.2648 3.14386 24.9159 3.31835 24.497C3.56266 23.9386 3.84183 23.3454 4.12103 22.7521L4.15591 22.6823C6.56389 17.4825 9.14634 12.178 11.8335 7.01308L11.9382 6.80368C12.2174 6.28023 12.4966 5.72186 12.7757 5.19838C13.0549 4.64001 13.369 4.11653 13.7529 3.66285C14.4858 2.82531 15.4629 2.37163 16.5447 2.37163C17.6266 2.37163 18.6037 2.82531 19.3366 3.66285C19.7205 4.11653 20.0345 4.64001 20.3137 5.19838C20.5929 5.72186 20.8721 6.28023 21.1513 6.80368L21.256 7.01308C23.9082 12.2129 26.4907 17.5174 28.8987 22.7172V22.7521C29.1778 23.3105 29.4221 23.9386 29.7012 24.497C29.8758 24.9159 30.0504 25.2648 30.1549 25.6139C30.4341 26.521 30.5389 27.3936 30.3992 28.301Z" fill="#333333"/>
</g>
</svg>
