<svg width="136" height="29" viewBox="0 0 136 29" fill="none" xmlns="http://www.w3.org/2000/svg">
<mask id="mask0_1_1344" style="mask-type:luminance" maskUnits="userSpaceOnUse" x="0" y="0" width="136" height="29">
<path d="M135.823 0.0644531H0.131561V28.9349H135.823V0.0644531Z" fill="white"/>
</mask>
<g mask="url(#mask0_1_1344)">
<path d="M11.524 13.9722C12.3526 13.9722 13.0758 14.0011 13.7168 14.118C14.6291 14.2783 15.4014 15.55 15.4014 16.1707C15.4014 16.4883 15.4014 16.8405 15.2628 17.3544C15.0376 18.1426 13.4901 20.9776 12.8463 22.0444C12.0711 20.7871 10.2465 17.236 9.61571 15.8531C9.34144 15.2729 9.20286 14.7907 9.20286 14.554C9.20286 14.118 10.069 13.9722 11.524 13.9722ZM1.18408 13.9722C1.95781 14.1642 2.41108 14.3245 3.04623 15.462C5.28225 19.5659 7.52116 24.09 9.69944 28.5402C9.97371 28.7712 10.2942 28.8231 10.7575 28.8231C11.205 28.8231 11.5226 28.7712 11.8084 28.5416C12.8463 26.5828 15.5847 21.3256 16.7655 19.2844C18.1397 21.8076 20.5057 26.4124 21.4656 28.5416C21.7313 28.7726 22.0603 28.8231 22.5092 28.8231C22.9639 28.8231 23.2917 28.7712 23.5557 28.5416C25.4887 24.3133 27.526 20.1335 29.6663 16.0062C30.3966 14.554 30.7128 14.1642 32.2185 13.8842L32.8565 13.7716C33.2201 13.4064 33.1263 12.5504 32.7221 12.3858C31.7189 12.4652 30.5352 12.5056 29.2057 12.5056C28.0684 12.5056 26.9827 12.4652 25.4728 12.3858C25.0167 12.5504 25.0167 13.4901 25.2952 13.7716L26.0633 13.9203C26.847 14.0805 27.2051 14.2783 27.2051 14.4789C27.2051 14.7546 27.0665 15.3061 26.7836 16.0062C26.0633 17.8293 25.3487 19.7622 24.2414 22.0444C23.2426 20.1475 21.9695 17.5926 21.1437 15.6987C20.8752 15.0332 20.7828 14.7893 20.7828 14.4789C20.7828 14.2783 21.4137 14.0805 22.4689 13.8842L23.1473 13.7716C23.4764 13.6114 23.511 12.4334 23.0116 12.3858C20.3235 12.4651 17.6344 12.5051 14.9452 12.5056H5.73985C3.82574 12.5056 2.37066 12.4652 0.502739 12.3858C0.0364798 12.5836 0.0364798 13.4497 0.352612 13.7716L1.18408 13.9722Z" fill="#333333"/>
<path d="M39.2539 13.72C40.7971 13.72 41.669 14.5789 41.669 15.8824C41.669 16.278 41.578 16.6764 41.3515 16.789C40.8418 17.0661 40.1142 17.1398 39.4777 17.1398H37.7946C36.328 17.1398 35.6985 17.1109 35.6985 16.5522C35.6985 15.2877 37.3399 13.7186 39.2553 13.7186L39.2539 13.72ZM39.2062 28.7702C41.9389 28.7702 45.3212 27.6255 47.1847 24.2779C47.1847 23.6066 46.4932 23.2891 45.998 23.3628C44.7668 25.1831 43.0288 25.4127 41.7571 25.4127C37.5217 25.4127 35.3276 22.5414 35.3276 19.5865C35.3276 18.9572 35.4228 18.8792 36.4738 18.8792H45.2143C46.6376 18.8792 46.8599 18.3278 46.8599 17.58C46.8599 14.5414 44.3049 11.9026 39.5643 11.9026C33.8768 11.9026 29.7281 15.767 29.7281 20.734C29.7281 25.0285 33.0554 28.7702 39.2062 28.7702ZM58.5019 13.9727C59.3348 13.9727 60.0579 14.0015 60.6989 14.1185C61.6113 14.2787 62.385 15.5504 62.385 16.1712C62.385 16.4887 62.385 16.8409 62.2493 17.3548C62.0155 18.143 60.4693 20.978 59.8342 22.0448C59.0505 20.7876 57.2358 17.2365 56.5979 15.8536C56.3294 15.2733 56.1865 14.7911 56.1865 14.5544C56.1865 14.1185 57.0468 13.9727 58.5019 13.9727ZM48.1633 13.9727C48.9444 14.1647 49.3933 14.3249 50.0313 15.4624C52.2601 19.5663 54.5048 24.0902 56.6859 28.5407C56.9632 28.7717 57.2808 28.8236 57.7369 28.8236C58.1886 28.8236 58.5019 28.7717 58.782 28.5421C59.8358 26.5833 62.5641 21.3259 63.752 19.2848C65.1233 21.8081 67.4821 26.4129 68.442 28.5421C68.7163 28.7731 69.0339 28.8236 69.4872 28.8236C69.9477 28.8236 70.2681 28.7717 70.5379 28.5421C72.473 24.3144 74.5114 20.1346 76.6512 16.0066C77.3802 14.5544 77.695 14.1647 79.1977 13.8846L79.8414 13.772C80.2009 13.4068 80.1057 12.5508 79.7015 12.3862C78.6938 12.4656 77.516 12.506 76.1879 12.506C74.9429 12.5001 73.698 12.4601 72.455 12.3862C71.9931 12.5508 71.9931 13.4905 72.2732 13.772L73.0468 13.9207C73.8235 14.0809 74.1844 14.2787 74.1844 14.4793C74.1844 14.7551 74.0473 15.3065 73.7786 16.0066C73.0468 17.8298 72.3165 19.7626 71.2194 22.0448C70.2203 20.148 68.9472 17.593 68.1272 15.6991C67.8502 15.0337 67.7591 14.7897 67.7591 14.4793C67.7591 14.2787 68.3929 14.0809 69.4481 13.8846L70.1265 13.772C70.4471 13.6118 70.4946 12.4339 69.991 12.3862C67.0779 12.4656 64.7913 12.506 61.9245 12.506H52.7176C50.9714 12.5063 49.2251 12.4663 47.4806 12.3862C47.0287 12.584 47.0287 13.4501 47.3463 13.772L48.1633 13.9727Z" fill="#333333"/>
<path d="M87.1794 13.72C89.7677 13.72 91.0452 17.0228 91.0958 20.8511C91.1347 24.3992 90.2643 26.9586 87.6644 26.9586C85.033 26.9586 83.5215 23.9186 83.5215 19.7872C83.5215 15.497 85.1715 13.7186 87.1794 13.7186V13.72ZM87.1794 28.7702C92.7775 28.7702 97.658 26.0534 97.658 20.2924C97.658 14.7377 92.8194 11.9026 87.4465 11.9026C82.0665 11.9026 76.9159 15.0134 76.9593 20.6532C77.0128 26.0867 81.7459 28.7702 87.1794 28.7702Z" fill="#333333"/>
<path d="M105.423 15.2408C105.704 15.2408 106.108 15.2841 107.152 16.0289C107.737 16.5053 108.285 16.742 108.927 16.742C110.382 16.742 111.848 15.9943 111.848 14.1798C111.848 12.6915 110.572 11.8557 109.332 11.8557C107.425 11.8557 106.108 13.1549 104.87 13.8218C104.509 13.7496 104.413 13.6298 104.413 13.3512C104.413 12.999 104.507 12.4519 104.591 11.6565C104.413 11.4226 104.134 11.2971 103.783 11.2971C102.364 12.0968 99.2212 13.1549 97.1178 13.6731C96.8003 13.9041 96.8003 14.6143 97.1178 14.8525L97.7676 15.2076C98.6293 15.681 98.6293 16.1516 98.6293 17.7308V23.6782C98.6293 26.4353 98.4461 26.789 96.9404 26.9131L96.0729 26.9853C95.7062 27.2221 95.7062 28.1343 96.1204 28.3711C97.9124 28.2839 99.7064 28.2434 101.501 28.2498C103.637 28.2498 105.464 28.2845 107.654 28.3697C108.064 28.1343 108.064 27.2221 107.696 26.9853L106.238 26.8756C104.734 26.7499 104.549 26.4339 104.549 23.6782V17.611C104.549 16.1155 104.78 15.2408 105.424 15.2408" fill="#333333"/>
<path d="M123.305 26.8563L122.714 26.979C122.345 27.3326 122.434 28.1554 122.892 28.3503C124.168 28.2723 125.803 28.2348 128.504 28.2348C131.146 28.2348 132.829 28.2723 134.238 28.3503C134.695 28.1987 134.789 27.2518 134.418 26.979L133.741 26.8549C132.559 26.66 131.694 26.4565 131.056 25.9527C129.91 25.0474 125.899 19.6848 125.09 18.4246C124.855 18.1099 124.758 17.8761 124.758 17.7534C124.758 17.6379 124.806 17.482 125.03 17.2395C125.671 16.6953 126.366 16.0933 128.091 14.9515C129.317 14.1316 130.283 13.739 131.147 13.5773L132.599 13.3001C132.926 12.9927 132.881 12.1121 132.415 11.9216C129.733 12.2796 125.948 12.473 123.803 12.473H122.714C122.259 12.6375 122.209 13.4979 122.619 13.8516L123.762 14.0161C124.168 14.0479 124.623 14.2038 124.623 14.4059C124.623 14.6426 124.403 15.0728 123.531 15.9735L121.623 17.9165C120.708 18.8187 119.751 19.0165 118.975 19.0165C118.48 19.0165 118.333 18.8981 118.333 18.4636V6.09405C118.333 3.6083 118.391 1.95114 118.48 0.338723C118.301 0.136629 117.972 0.0644531 117.701 0.0644531C115.371 0.92335 112.598 1.87896 110.731 2.26294C110.408 2.50545 110.408 3.21711 110.731 3.44086L111.505 3.84504C112.413 4.31996 112.413 4.75158 112.413 6.33657V23.6647C112.413 26.4218 112.23 26.738 110.583 26.901L109.717 26.979C109.357 27.2099 109.357 28.1193 109.763 28.3503C111.616 28.2677 113.471 28.2292 115.326 28.2348C117.425 28.2348 119.336 28.2723 120.801 28.3503C121.206 28.1193 121.206 27.2099 120.845 26.979L120.12 26.901C118.518 26.738 118.333 26.4204 118.333 23.6647V21.3839C118.333 20.6289 118.564 20.437 118.879 20.437C119.336 20.437 119.703 20.5958 120.028 21.0172L123.258 25.2828C123.624 25.7506 124.031 26.3799 124.031 26.5503C124.031 26.6961 123.762 26.7697 123.305 26.8549" fill="#333333"/>
</g>
</svg>
