<svg width="33" height="32" viewBox="0 0 33 32" fill="none" xmlns="http://www.w3.org/2000/svg">
<mask id="mask0_1_669" style="mask-type:alpha" maskUnits="userSpaceOnUse" x="0" y="0" width="33" height="32">
<rect x="0.5" width="32" height="32" fill="#D9D9D9"/>
</mask>
<g mask="url(#mask0_1_669)">
<path d="M3.76666 14.1L9.36666 8.49997C9.67777 8.18886 10.0444 7.96663 10.4667 7.8333C10.8889 7.69997 11.3222 7.67775 11.7667 7.76663L13.5 8.1333C12.3 9.55552 11.3555 10.8444 10.6667 12C9.97777 13.1555 9.31111 14.5555 8.66666 16.2L3.76666 14.1ZM10.6 17.1333C11.1111 15.5333 11.8055 14.0222 12.6833 12.6C13.5611 11.1777 14.6222 9.84441 15.8667 8.59997C17.8222 6.64441 20.0555 5.1833 22.5667 4.21663C25.0778 3.24997 27.4222 2.95552 29.6 3.3333C29.9778 5.51108 29.6889 7.85552 28.7333 10.3666C27.7778 12.8777 26.3222 15.1111 24.3667 17.0666C23.1444 18.2889 21.8111 19.35 20.3667 20.25C18.9222 21.15 17.4 21.8555 15.8 22.3666L10.6 17.1333ZM19.8 13.1333C20.3111 13.6444 20.9389 13.9 21.6833 13.9C22.4278 13.9 23.0555 13.6444 23.5667 13.1333C24.0778 12.6222 24.3333 11.9944 24.3333 11.25C24.3333 10.5055 24.0778 9.87775 23.5667 9.36663C23.0555 8.85552 22.4278 8.59997 21.6833 8.59997C20.9389 8.59997 20.3111 8.85552 19.8 9.36663C19.2889 9.87775 19.0333 10.5055 19.0333 11.25C19.0333 11.9944 19.2889 12.6222 19.8 13.1333ZM18.8667 29.1666L16.7333 24.2666C18.3778 23.6222 19.7833 22.9555 20.95 22.2666C22.1167 21.5777 23.4111 20.6333 24.8333 19.4333L25.1667 21.1666C25.2556 21.6111 25.2333 22.05 25.1 22.4833C24.9667 22.9166 24.7444 23.2889 24.4333 23.6L18.8667 29.1666ZM5.89999 21.4C6.67777 20.6222 7.62222 20.2277 8.73333 20.2166C9.84444 20.2055 10.7889 20.5889 11.5667 21.3666C12.3444 22.1444 12.7333 23.0889 12.7333 24.2C12.7333 25.3111 12.3444 26.2555 11.5667 27.0333C11.0111 27.5889 10.0833 28.0666 8.78333 28.4666C7.48333 28.8666 5.68888 29.2222 3.39999 29.5333C3.71111 27.2444 4.06666 25.4555 4.46666 24.1666C4.86666 22.8777 5.34444 21.9555 5.89999 21.4Z" fill="#008080"/>
</g>
</svg>
