<svg width="33" height="32" viewBox="0 0 33 32" fill="none" xmlns="http://www.w3.org/2000/svg">
<path d="M28.1476 14.8266V8.9733C28.1476 7.87997 27.3209 6.63997 26.2942 6.22664L18.8676 3.18664C17.2009 2.50664 15.3209 2.50664 13.6542 3.18664L6.22757 6.22664C5.21424 6.63997 4.38757 7.87997 4.38757 8.9733V14.8266C4.38757 21.3466 9.12091 27.4533 15.5876 29.24C16.0276 29.36 16.5076 29.36 16.9476 29.24C23.4142 27.4533 28.1476 21.3466 28.1476 14.8266ZM17.2676 17.16V20.6666C17.2676 21.2133 16.8142 21.6666 16.2676 21.6666C15.7209 21.6666 15.2676 21.2133 15.2676 20.6666V17.16C13.9209 16.7333 12.9342 15.48 12.9342 14C12.9342 12.16 14.4276 10.6666 16.2676 10.6666C18.1076 10.6666 19.6009 12.16 19.6009 14C19.6009 15.4933 18.6142 16.7333 17.2676 17.16Z" fill="#008080"/>
</svg>
