<svg width="33" height="32" viewBox="0 0 33 32" fill="none" xmlns="http://www.w3.org/2000/svg">
<path d="M29.0142 14.32L27.2009 12.2133C26.8542 11.8133 26.5742 11.0667 26.5742 10.5333V8.26666C26.5742 6.85333 25.4142 5.69333 24.0009 5.69333H21.7342C21.2142 5.69333 20.4542 5.41333 20.0542 5.06666L17.9476 3.25333C17.0276 2.46666 15.5209 2.46666 14.5876 3.25333L12.4942 5.08C12.0942 5.41333 11.3342 5.69333 10.8142 5.69333H8.50758C7.09424 5.69333 5.93424 6.85333 5.93424 8.26666V10.5467C5.93424 11.0667 5.65424 11.8133 5.32091 12.2133L3.52091 14.3333C2.74758 15.2533 2.74758 16.7467 3.52091 17.6667L5.32091 19.7867C5.65424 20.1867 5.93424 20.9333 5.93424 21.4533V23.7333C5.93424 25.1467 7.09424 26.3067 8.50758 26.3067H10.8142C11.3342 26.3067 12.0942 26.5867 12.4942 26.9333L14.6009 28.7467C15.5209 29.5333 17.0276 29.5333 17.9609 28.7467L20.0676 26.9333C20.4676 26.5867 21.2142 26.3067 21.7476 26.3067H24.0142C25.4276 26.3067 26.5876 25.1467 26.5876 23.7333V21.4667C26.5876 20.9467 26.8676 20.1867 27.2142 19.7867L29.0276 17.68C29.8009 16.76 29.8009 15.24 29.0142 14.32ZM21.8142 13.48L15.3742 19.92C15.1876 20.1067 14.9342 20.2133 14.6676 20.2133C14.4009 20.2133 14.1476 20.1067 13.9609 19.92L10.7342 16.6933C10.3476 16.3067 10.3476 15.6667 10.7342 15.28C11.1209 14.8933 11.7609 14.8933 12.1476 15.28L14.6676 17.8L20.4009 12.0667C20.7876 11.68 21.4276 11.68 21.8142 12.0667C22.2009 12.4533 22.2009 13.0933 21.8142 13.48Z" fill="#008080"/>
</svg>
